<svg version="1.1" xmlns="http://www.w3.org/2000/svg"
  viewBox="0 0 502.61179012538014 502.61179012537923" width="502.61179012538014"
  height="502.61179012537923">
  <!-- svg-source:excalidraw -->
  <g stroke-linecap="round"
    transform="translate(10.00000000000091 10) rotate(0 241.30589506268961 241.3058950626894)">
    <path
      d="M341.37 23.57 C360.04 28.21, 376.41 42.82, 392.21 55.11 C408 67.4, 423.86 81.29, 436.14 97.29 C448.42 113.29, 458.28 132.7, 465.86 151.11 C473.44 169.53, 479.06 188.13, 481.64 207.77 C484.22 227.41, 483.89 249.04, 481.33 268.95 C478.78 288.86, 473.3 308.32, 466.29 327.22 C459.28 346.13, 450.62 365.95, 439.27 382.38 C427.93 398.81, 413.75 413.4, 398.22 425.8 C382.68 438.21, 364.36 447.95, 346.05 456.79 C327.74 465.64, 308.19 474.33, 288.38 478.88 C268.56 483.42, 246.82 485.03, 227.15 484.06 C207.48 483.08, 189.27 479.15, 170.34 473.02 C151.4 466.89, 130.99 457.9, 113.55 447.27 C96.1 436.64, 79.5 424.07, 65.66 409.23 C51.82 394.39, 40.03 376.01, 30.51 358.23 C21 340.44, 13.87 321.69, 8.56 302.52 C3.24 283.35, -1.23 263.27, -1.39 243.2 C-1.54 223.13, 2.64 201.69, 7.64 182.1 C12.64 162.51, 19.49 143.2, 28.6 125.67 C37.72 108.14, 48.52 91.32, 62.34 76.91 C76.16 62.5, 94.8 49.97, 111.54 39.21 C128.29 28.44, 143.95 18.81, 162.78 12.33 C181.61 5.85, 204.12 1.79, 224.53 0.35 C244.95 -1.09, 264.1 -1.1, 285.3 3.69 C306.49 8.48, 338.53 23.54, 351.71 29.1 C364.88 34.65, 365.87 33.73, 364.34 37.01 M52.57 89.56 C61.62 71.94, 80.29 59.7, 96.14 47.82 C111.98 35.95, 129.17 25.94, 147.65 18.32 C166.13 10.7, 186.41 4.49, 207.02 2.09 C227.63 -0.32, 250.94 1.4, 271.31 3.87 C291.69 6.34, 311.21 10.27, 329.25 16.9 C347.3 23.53, 363.54 32.01, 379.58 43.66 C395.62 55.31, 412.59 71.74, 425.51 86.81 C438.42 101.87, 448.73 116.66, 457.09 134.06 C465.44 151.45, 471.47 171.02, 475.61 191.17 C479.74 211.32, 482.74 235.1, 481.9 254.97 C481.06 274.83, 476.18 291.29, 470.58 310.37 C464.98 329.45, 458.42 352.11, 448.3 369.46 C438.17 386.81, 424.18 401.24, 409.83 414.49 C395.48 427.74, 379.39 438.61, 362.21 448.96 C345.03 459.31, 326.28 471.37, 306.74 476.59 C287.21 481.81, 265.34 480.87, 245.02 480.27 C224.71 479.66, 204.32 477.58, 184.87 472.97 C165.42 468.36, 146.2 461.98, 128.3 452.61 C110.41 443.25, 92.09 430.31, 77.48 416.81 C62.88 403.31, 51.22 388.38, 40.68 371.61 C30.14 354.84, 20.91 335.22, 14.25 316.2 C7.59 297.18, 2.63 276.73, 0.71 257.48 C-1.2 238.23, -1.03 220.28, 2.77 200.72 C6.57 181.15, 14.88 158.33, 23.51 140.08 C32.14 121.84, 49.39 99.45, 54.55 91.25 C59.7 83.06, 51.73 88.87, 54.46 90.91"
      stroke="none" stroke-width="0" fill="white"></path>
    <path
      d="M104.9 43.33 C118.25 29.52, 139.43 22.48, 158.17 15.52 C176.9 8.57, 197.65 3.83, 217.34 1.61 C237.03 -0.61, 256.66 -0.9, 276.31 2.2 C295.95 5.3, 316.84 12.41, 335.19 20.2 C353.54 28, 370.8 36.92, 386.41 48.96 C402.02 60.99, 416.27 77.01, 428.85 92.42 C441.44 107.83, 453.46 123.16, 461.9 141.4 C470.34 159.64, 476.45 182.23, 479.49 201.87 C482.53 221.52, 481.91 239.78, 480.14 259.29 C478.37 278.8, 475.04 299.76, 468.86 318.93 C462.68 338.09, 454.14 357.54, 443.06 374.28 C431.97 391.02, 417.13 406.23, 402.35 419.38 C387.56 432.53, 372.01 443.77, 354.34 453.17 C336.68 462.57, 315.9 471.18, 296.36 475.79 C276.81 480.4, 256.76 480.88, 237.08 480.85 C217.4 480.81, 197.72 480.89, 178.26 475.61 C158.79 470.33, 138.01 459.69, 120.29 449.19 C102.56 438.68, 85.98 426.32, 71.89 412.59 C57.81 398.86, 46.04 383.77, 35.76 366.79 C25.48 349.8, 16.35 329.63, 10.23 310.66 C4.11 291.69, -0.11 272.71, -0.98 252.98 C-1.86 233.25, 0.82 212.31, 4.99 192.26 C9.16 172.22, 15.04 150.75, 24.01 132.72 C32.98 114.69, 44.24 100.01, 58.83 84.08 C73.42 68.15, 101.49 44.92, 111.55 37.14 C121.61 29.35, 117.53 33.5, 119.18 37.36 M93.08 52.63 C105.19 37.51, 123.57 28, 141.36 19.32 C159.16 10.65, 180.1 3.53, 199.84 0.57 C219.58 -2.39, 239.32 -0.42, 259.8 1.54 C280.27 3.49, 303.23 5.79, 322.69 12.31 C342.14 18.83, 360.25 29.56, 376.51 40.68 C392.78 51.8, 407.64 63.93, 420.28 79.01 C432.93 94.1, 442.94 113.43, 452.4 131.18 C461.86 148.92, 472.36 166.06, 477.03 185.49 C481.69 204.91, 481.05 227.28, 480.41 247.73 C479.77 268.19, 478.49 289.04, 473.16 308.21 C467.84 327.39, 458.62 345.83, 448.46 362.77 C438.3 379.72, 426.1 395.73, 412.21 409.87 C398.33 424, 382.37 437.45, 365.14 447.58 C347.92 457.71, 327.74 465.35, 308.84 470.65 C289.95 475.95, 271.38 478.39, 251.77 479.39 C232.16 480.39, 210.29 480.11, 191.2 476.65 C172.11 473.19, 155.32 467.46, 137.23 458.64 C119.14 449.81, 98.02 436.63, 82.65 423.7 C67.28 410.78, 56.69 397.78, 44.98 381.1 C33.28 364.43, 19.27 342.78, 12.42 323.67 C5.56 304.55, 5.43 285.83, 3.86 266.42 C2.29 247.01, 0.58 227.06, 3.02 207.2 C5.46 187.34, 11 166.16, 18.5 147.25 C26.01 128.34, 36.01 109.89, 48.05 93.75 C60.09 77.62, 83.31 56.83, 90.76 50.45 C98.21 44.08, 89.83 52.26, 92.75 55.48"
      stroke="#495057" stroke-width="2" fill="none"></path>
  </g>
  <g stroke-opacity="0.8" fill-opacity="0.8" stroke-linecap="round"
    transform="translate(86.70675613979529 278.21014403835443) rotate(0 43.33153869998205 43.33153869998205)">
    <path
      d="M30.92 2.89 C37.82 0.15, 48.5 -0.75, 55.87 1.16 C63.24 3.07, 70.05 8.47, 75.15 14.34 C80.26 20.2, 85.15 28.46, 86.5 36.34 C87.85 44.21, 86.61 54.42, 83.25 61.59 C79.89 68.76, 72.73 75.25, 66.34 79.34 C59.95 83.43, 52.69 86.06, 44.92 86.14 C37.15 86.21, 26.61 83.79, 19.73 79.8 C12.85 75.81, 6.89 69.06, 3.66 62.2 C0.42 55.34, -0.63 46.33, 0.33 38.66 C1.29 31, 3.67 22.61, 9.4 16.2 C15.13 9.79, 30.08 2.79, 34.71 0.19 C39.33 -2.4, 37.23 -0.31, 37.13 0.61 M41.87 -1.11 C49.35 -2.02, 58.35 1.77, 65.16 6.05 C71.97 10.34, 79.21 17.86, 82.76 24.57 C86.31 31.29, 87.17 38.9, 86.46 46.37 C85.75 53.84, 83.39 63.21, 78.5 69.37 C73.6 75.54, 64.57 80.65, 57.1 83.36 C49.63 86.07, 41.05 87.55, 33.69 85.64 C26.33 83.72, 18.64 77.38, 12.94 71.87 C7.23 66.37, 1.32 60.19, -0.56 52.63 C-2.44 45.07, -1.58 33.72, 1.66 26.52 C4.91 19.33, 12.24 13.78, 18.89 9.46 C25.54 5.14, 37.85 2.02, 41.58 0.59 C45.3 -0.83, 41.18 0.31, 41.26 0.89"
      stroke="none" stroke-width="0" fill="#7950f2"></path>
    <path
      d="M44.22 0.42 C51.72 -0.14, 59.97 2.24, 66.53 6.45 C73.09 10.66, 80.24 18.54, 83.58 25.68 C86.93 32.82, 88.01 41.56, 86.6 49.3 C85.19 57.03, 80.51 66.14, 75.13 72.11 C69.75 78.07, 61.7 82.83, 54.32 85.08 C46.93 87.33, 38.27 87.97, 30.82 85.61 C23.38 83.26, 14.68 76.85, 9.66 70.94 C4.64 65.02, 1.72 57.81, 0.69 50.14 C-0.34 42.47, 0.39 32.04, 3.49 24.9 C6.58 17.77, 11.73 11.51, 19.27 7.32 C26.8 3.13, 43.03 0.55, 48.71 -0.23 C54.39 -1, 53.51 1.74, 53.35 2.67 M36.01 1.8 C43.29 0.2, 52.95 1.88, 60.33 4.65 C67.71 7.42, 76.06 12.27, 80.29 18.43 C84.51 24.58, 85.81 33.63, 85.67 41.59 C85.54 49.55, 83.64 59.52, 79.47 66.2 C75.31 72.87, 67.47 78.1, 60.69 81.65 C53.91 85.2, 46.07 88.52, 38.78 87.48 C31.49 86.44, 23.11 80.8, 16.94 75.4 C10.77 70, 4.4 62.55, 1.74 55.1 C-0.92 47.64, -0.96 37.85, 0.99 30.66 C2.93 23.46, 7.29 16.8, 13.43 11.93 C19.57 7.07, 34.19 3.35, 37.83 1.47 C41.47 -0.41, 35.46 0.29, 35.25 0.64"
      stroke="#343a40" stroke-width="1" fill="none"></path>
  </g>
  <g stroke-opacity="0.7" fill-opacity="0.7" stroke-linecap="round"
    transform="translate(227.41568635044223 177.18019232348752) rotate(0 32.86274269834803 32.86274269834826)">
    <path
      d="M18.38 4.07 C23.77 1.13, 31.88 -0.18, 38.46 1.05 C45.03 2.28, 53.41 6.88, 57.84 11.44 C62.28 16, 64.46 22.1, 65.07 28.39 C65.68 34.68, 64.57 43.44, 61.49 49.18 C58.41 54.93, 52.25 60.39, 46.58 62.88 C40.91 65.37, 33.76 65.25, 27.46 64.14 C21.15 63.02, 13.37 60.85, 8.74 56.18 C4.12 51.51, 0.55 42.74, -0.28 36.11 C-1.11 29.48, 0.15 22.04, 3.78 16.38 C7.41 10.71, 18.04 4.62, 21.52 2.1 C24.99 -0.43, 24.34 0.6, 24.61 1.22 M18.71 3.35 C24.33 0.63, 33.64 -1.01, 40.13 0.42 C46.61 1.85, 53.57 6.97, 57.62 11.93 C61.67 16.89, 63.83 23.72, 64.44 30.19 C65.05 36.65, 64.22 45.23, 61.28 50.72 C58.34 56.21, 52.95 60.57, 46.8 63.11 C40.65 65.66, 30.96 67.5, 24.38 65.98 C17.8 64.46, 11.51 58.95, 7.31 54 C3.12 49.05, -0.39 42.46, -0.79 36.27 C-1.19 30.08, 1.65 22.71, 4.9 16.88 C8.14 11.05, 15.92 3.78, 18.67 1.26 C21.42 -1.25, 21.06 0.93, 21.38 1.78"
      stroke="none" stroke-width="0" fill="#7950f2"></path>
    <path
      d="M19.13 2.76 C24.46 -0.26, 31.99 -0.04, 38.27 1.28 C44.55 2.59, 52.35 6.23, 56.81 10.65 C61.26 15.07, 64.13 21.63, 64.98 27.78 C65.84 33.94, 64.93 41.78, 61.95 47.56 C58.97 53.34, 52.83 59.66, 47.12 62.47 C41.4 65.28, 34.11 65.54, 27.67 64.43 C21.22 63.31, 12.87 60.41, 8.46 55.78 C4.04 51.15, 1.96 43.2, 1.18 36.63 C0.4 30.05, -0.03 22.11, 3.79 16.33 C7.6 10.56, 20.01 4.37, 24.06 1.96 C28.11 -0.44, 27.89 1.45, 28.08 1.89 M44.82 1.87 C50.96 3.74, 58.16 9.21, 61.81 14.86 C65.45 20.51, 67.44 29.43, 66.71 35.75 C65.97 42.07, 61.82 48.06, 57.39 52.76 C52.96 57.46, 46.21 62.4, 40.13 63.96 C34.05 65.52, 26.88 64.22, 20.92 62.13 C14.96 60.04, 7.67 56.39, 4.38 51.42 C1.1 46.45, 0.89 38.91, 1.22 32.3 C1.54 25.69, 2.61 17.05, 6.32 11.75 C10.02 6.45, 17.22 2.23, 23.44 0.49 C29.67 -1.25, 40.02 0.68, 43.69 1.31 C47.37 1.95, 45.34 3.84, 45.49 4.29"
      stroke="#343a40" stroke-width="1" fill="none"></path>
  </g>
  <g stroke-opacity="0.9" fill-opacity="0.9" stroke-linecap="round"
    transform="translate(336.04610512046474 248.8725557447765) rotate(0 54.66443074861172 54.66443074861172)">
    <path
      d="M43.84 1 C52.26 -1.38, 63.51 0.74, 71.94 3.6 C80.37 6.45, 88.22 11.57, 94.41 18.13 C100.6 24.68, 107.18 34.06, 109.08 42.93 C110.99 51.81, 108.94 62.58, 105.86 71.36 C102.77 80.15, 97.25 89.38, 90.58 95.65 C83.91 101.92, 74.8 107.05, 65.85 109 C56.9 110.94, 45.42 110.45, 36.87 107.33 C28.32 104.22, 20.63 97.33, 14.55 90.32 C8.47 83.31, 2.53 73.97, 0.41 65.27 C-1.71 56.57, -1.11 46.72, 1.84 38.11 C4.79 29.51, 8.87 19.92, 18.11 13.65 C27.35 7.38, 48.63 2.14, 57.26 0.47 C65.88 -1.19, 69.88 2.7, 69.87 3.65 M75.51 2.96 C83.8 5.38, 91.22 12.23, 96.84 19.48 C102.46 26.74, 107.62 37.55, 109.24 46.48 C110.87 55.41, 110.2 64.41, 106.59 73.05 C102.99 81.69, 95.09 92.52, 87.59 98.34 C80.09 104.16, 70.27 106.51, 61.61 107.97 C52.95 109.42, 43.82 110.14, 35.62 107.06 C27.41 103.97, 18.23 96.81, 12.39 89.48 C6.56 82.14, 1.96 72.16, 0.6 63.02 C-0.75 53.88, 1.2 42.98, 4.27 34.63 C7.35 26.28, 11.84 18.43, 19.04 12.91 C26.23 7.4, 38.41 2.86, 47.46 1.55 C56.5 0.25, 69.01 4.54, 73.33 5.07 C77.65 5.6, 73.55 3.89, 73.38 4.72"
      stroke="none" stroke-width="0" fill="#7950f2"></path>
    <path
      d="M38.3 1.8 C46.36 -1.53, 58.73 -0.55, 67.75 1.53 C76.77 3.61, 86 8.03, 92.41 14.27 C98.81 20.51, 103.76 30.14, 106.18 38.95 C108.6 47.76, 108.88 58.15, 106.94 67.12 C105 76.09, 100.73 86.23, 94.55 92.77 C88.36 99.32, 78.49 103.71, 69.83 106.38 C61.17 109.06, 51.43 110.81, 42.59 108.81 C33.75 106.82, 23.65 100.68, 16.8 94.41 C9.95 88.13, 3.98 79.93, 1.51 71.17 C-0.95 62.4, -0.35 50.65, 2.01 41.81 C4.37 32.98, 9.24 24.69, 15.68 18.16 C22.12 11.62, 36.23 5.28, 40.68 2.6 C45.12 -0.09, 42.13 1.32, 42.34 2.03 M77.63 3.79 C85.75 6.22, 92.67 13.87, 97.79 21.38 C102.9 28.88, 107.37 39.73, 108.3 48.82 C109.23 57.91, 106.77 67.41, 103.36 75.93 C99.95 84.45, 94.73 94.61, 87.83 99.93 C80.94 105.25, 71.24 107.24, 61.99 107.84 C52.75 108.44, 41.05 107.2, 32.38 103.53 C23.72 99.85, 15.5 92.79, 10 85.77 C4.49 78.76, 0.02 70.14, -0.64 61.43 C-1.3 52.73, 2.43 42.14, 6.05 33.53 C9.67 24.92, 14.04 15.54, 21.06 9.79 C28.08 4.03, 39.13 -0.18, 48.19 -0.99 C57.24 -1.8, 70.88 3.58, 75.41 4.93 C79.94 6.29, 75.69 6.24, 75.37 7.14"
      stroke="#343a40" stroke-width="1" fill="none"></path>
  </g>
  <g stroke-opacity="0.5" fill-opacity="0.5" stroke-linecap="round"
    transform="translate(151.39458193456176 140.7185915537816) rotate(0 18.78684551508877 18.78684551508877)">
    <path
      d="M13.13 0.81 C16.73 -0.08, 22.53 1.03, 26.2 2.79 C29.87 4.55, 33.22 7.71, 35.16 11.37 C37.1 15.02, 38.86 20.98, 37.85 24.71 C36.84 28.44, 32.56 31.55, 29.08 33.74 C25.6 35.94, 20.92 38.12, 16.96 37.87 C12.99 37.62, 7.95 35.33, 5.29 32.24 C2.62 29.16, 1.26 23.26, 0.94 19.36 C0.62 15.46, 1.12 12.14, 3.37 8.86 C5.62 5.57, 12.39 1.12, 14.44 -0.35 C16.48 -1.82, 15.44 -0.38, 15.64 0.05 M27.27 0.38 C30.86 1.37, 33.09 5.63, 34.5 9.56 C35.91 13.5, 36.5 19.99, 35.71 23.98 C34.92 27.97, 32.79 31.14, 29.76 33.5 C26.73 35.86, 21.7 38.31, 17.51 38.15 C13.32 37.99, 7.5 35.27, 4.64 32.54 C1.78 29.81, 0.43 25.79, 0.37 21.76 C0.31 17.73, 2.26 11.67, 4.27 8.35 C6.28 5.03, 8.89 3.05, 12.45 1.85 C16.01 0.66, 23.47 1.07, 25.61 1.17 C27.75 1.28, 25.25 1.97, 25.28 2.49"
      stroke="none" stroke-width="0" fill="#7950f2"></path>
    <path
      d="M24.03 1.65 C27.69 2.75, 32.69 6.1, 34.84 9.26 C36.99 12.42, 37.48 16.88, 36.93 20.64 C36.38 24.39, 34.45 28.97, 31.55 31.79 C28.65 34.6, 23.45 37.34, 19.53 37.51 C15.6 37.69, 11.27 35.25, 7.99 32.83 C4.71 30.41, 0.65 26.87, -0.17 22.97 C-0.98 19.06, 1.15 13.16, 3.1 9.42 C5.06 5.67, 7.72 1.76, 11.57 0.5 C15.43 -0.75, 23.82 1.47, 26.22 1.89 C28.63 2.31, 26.08 2.81, 26.01 3.02 M25.6 0.89 C29.53 2.12, 34.43 5.73, 36.53 9.49 C38.64 13.25, 39.39 19.59, 38.24 23.43 C37.09 27.26, 33.13 30.26, 29.65 32.5 C26.16 34.73, 21.19 37.02, 17.32 36.86 C13.45 36.7, 9.41 33.95, 6.42 31.55 C3.44 29.14, -0.15 25.98, -0.57 22.45 C-0.99 18.93, 1.88 14.02, 3.92 10.4 C5.95 6.78, 8.21 2.36, 11.64 0.74 C15.07 -0.87, 22.38 0.75, 24.5 0.74 C26.61 0.73, 24.11 0.07, 24.33 0.69"
      stroke="#343a40" stroke-width="1" fill="none"></path>
  </g>
  <g stroke-opacity="0.9" fill-opacity="0.9" stroke-linecap="round"
    transform="translate(245.09031710008185 98.6434121063835) rotate(0 12.082005391739585 12.082005391739813)">
    <path
      d="M10.02 -0.39 C12.72 -0.97, 16.68 -0.67, 18.98 0.85 C21.28 2.37, 22.91 6.27, 23.83 8.74 C24.74 11.2, 25.48 13.38, 24.47 15.65 C23.46 17.92, 20.1 20.99, 17.78 22.35 C15.45 23.72, 12.96 24.1, 10.52 23.85 C8.08 23.6, 5.07 22.79, 3.16 20.84 C1.24 18.9, -1.06 14.98, -0.98 12.16 C-0.9 9.34, 1.84 5.98, 3.64 3.92 C5.44 1.85, 8.64 0.31, 9.84 -0.25 C11.04 -0.82, 10.67 0.12, 10.82 0.52 M6.47 -0.3 C8.37 -1.71, 12.26 -1.69, 15.03 -0.7 C17.81 0.29, 21.71 3.22, 23.14 5.65 C24.56 8.07, 24.01 11.44, 23.6 13.83 C23.19 16.22, 22.53 18.22, 20.69 19.98 C18.84 21.75, 15.08 23.97, 12.55 24.41 C10.01 24.86, 7.51 24.47, 5.46 22.63 C3.41 20.8, 0.71 16.24, 0.23 13.4 C-0.25 10.55, 1.4 7.81, 2.57 5.56 C3.74 3.31, 6.3 0.64, 7.26 -0.08 C8.22 -0.8, 8.02 1.14, 8.32 1.25"
      stroke="none" stroke-width="0" fill="#7950f2"></path>
    <path
      d="M15.34 0.38 C17.92 0.76, 20.69 2.14, 22.03 4.2 C23.37 6.25, 23.7 10.04, 23.38 12.72 C23.05 15.4, 21.69 18.26, 20.08 20.28 C18.47 22.3, 16.22 24.58, 13.7 24.83 C11.17 25.07, 7.05 23.1, 4.91 21.74 C2.78 20.39, 1.63 19.1, 0.87 16.7 C0.11 14.3, -0.43 9.8, 0.35 7.35 C1.13 4.9, 2.79 3.16, 5.57 1.99 C8.34 0.81, 14.78 0.2, 17 0.31 C19.23 0.42, 19.08 2.24, 18.93 2.63 M9.75 1.4 C12.2 1.04, 15.51 1.77, 17.96 2.75 C20.4 3.72, 23.67 5.16, 24.41 7.26 C25.15 9.37, 23.58 12.81, 22.39 15.39 C21.2 17.96, 19.58 21.41, 17.26 22.7 C14.94 24, 10.77 23.47, 8.49 23.17 C6.21 22.86, 4.77 22.94, 3.59 20.87 C2.41 18.8, 1.56 13.72, 1.41 10.74 C1.27 7.77, 1.34 4.99, 2.71 3.02 C4.07 1.06, 8.5 -0.74, 9.59 -1.03 C10.68 -1.33, 8.87 0.7, 9.23 1.25"
      stroke="#343a40" stroke-width="1" fill="none"></path>
  </g>
  <g stroke-linecap="round">
    <g
      transform="translate(181.1753185074549 148.10604087562433) rotate(0 31.96164614875761 -17.65431945463456)">
      <path
        d="M1.76 1.18 C12.95 -4.63, 53.62 -30.53, 64.65 -36.49 M-0.72 -0.65 C10.21 -5.97, 50.4 -28.62, 61.73 -33.73"
        stroke="#5f3dc4" stroke-width="4" fill="none"></path>
    </g>
  </g>
  <mask></mask>
  <g stroke-linecap="round">
    <g
      transform="translate(181.87396591749985 167.12898555790025) rotate(0 27.48774595199211 15.243382203062765)">
      <path
        d="M1.18 -1.25 C9.97 3.74, 42.43 26.39, 51.07 31.74 M-1.62 4.24 C8.24 8.3, 47.77 24.21, 56.6 27.84"
        stroke="#5f3dc4" stroke-width="4" fill="none"></path>
    </g>
  </g>
  <mask></mask>
  <g stroke-linecap="round">
    <g
      transform="translate(238.5436668757693 232.19176460923381) rotate(0 -41.49676235530114 33.897321905187255)">
      <path
        d="M-1.25 -1.6 C-15.73 9.13, -71 54.66, -85.13 65.6 M3.26 3.7 C-11.57 14.84, -71.18 58.95, -86.26 69.4"
        stroke="#5f3dc4" stroke-width="4" fill="none"></path>
    </g>
  </g>
  <mask></mask>
  <g stroke-linecap="round">
    <g
      transform="translate(162.61830602014652 324.08643107112266) rotate(0 86.58569370462692 -9.047987021481504)">
      <path
        d="M-1.6 2.04 C27.33 -0.38, 145.65 -12.24, 174.78 -15.76 M2.72 0.68 C31.2 -2.48, 144.72 -17.16, 172.71 -20.14"
        stroke="#5f3dc4" stroke-width="4" fill="none"></path>
    </g>
  </g>
  <mask></mask>
</svg>
